<?xml version="1.0" encoding="UTF-8"?><svg xmlns="http://www.w3.org/2000/svg" viewBox="0 0 64 64"><g id="a"/><g id="b"/><g id="c"><path d="M34.895,60.553l-.383-.766c-.522-1.045-1.473-1.808-2.608-2.092l-1.903-.477v-3.219c0-.553-.447-1-1-1s-1,.447-1,1v3.219l-1.904,.476c-1.135,.284-2.085,1.047-2.607,2.092l-.383,.766c-.247,.494-.047,1.095,.447,1.342,.495,.245,1.094,.047,1.342-.447l.383-.766c.262-.522,.737-.904,1.304-1.047l1.934-.482c.318-.08,.652-.079,.971,0l1.933,.483c.567,.143,1.043,.524,1.305,1.047l.383,.766c.176,.351,.528,.553,.896,.553,.15,0,.303-.034,.446-.105,.494-.247,.694-.848,.447-1.342Z" style="fill:#ddb76b;"/><path d="M37.895,60.553l-.383-.766c-.522-1.045-1.473-1.808-2.608-2.092l-1.903-.477v-3.219c0-.553-.447-1-1-1s-1,.447-1,1v3.219l-1.904,.476c-1.135,.284-2.085,1.047-2.607,2.092l-.383,.766c-.247,.494-.047,1.095,.447,1.342,.494,.245,1.094,.047,1.342-.447l.383-.766c.262-.522,.737-.904,1.304-1.047l1.934-.482c.318-.08,.652-.079,.971,0l1.933,.483c.567,.143,1.043,.524,1.305,1.047l.383,.766c.176,.351,.528,.553,.896,.553,.15,0,.303-.034,.446-.105,.494-.247,.694-.848,.447-1.342Z" style="fill:#e8c579;"/><path d="M30,53.75v.25h-2.43c-.36,0-.68-.18-.86-.49l-2.46-4.09c-.11-.19-.19-.41-.22-.63,1.31,.39,2.69,.67,4.13,.84l1.58,3.76c.06,.14,.15,.26,.26,.36Z" style="fill:#c1c1c1;"/><polygon points="9 15 3 15 6 10 9 15" style="fill:#f2c366;"/><path d="M61,40.89c-1.88,1.47-3.74,2.71-5.56,3.74-2.45,1.4-4.82,2.45-7.05,3.22-5.18,1.79-9.64,2.14-12.64,2.14l-1.49,3.41c-.16,.36-.52,.6-.91,.6h-2.69c-.25,0-.48-.09-.66-.25-.11-.1-.2-.22-.26-.36l-1.58-3.76c-1.44-.17-2.82-.45-4.13-.84-9.35-2.71-15.03-10.5-15.03-20.51v-2.35l-1.05-8.92c-.19-1.56-.7-3.1-1.67-4.34-1.06-1.34-1.55-3.14-1.13-5.05,.49-2.22,2.3-4,4.52-4.48,3.9-.83,7.33,2.11,7.33,5.84l.79,5.14c.32,2.06,1.12,3.96,2.3,5.59,1.14,1.59,2.7,2.83,4.43,3.76l2.84,1.53,22.29,12.01c1.18,.63,2.4,1.2,3.64,1.7,2.48,1.01,5.06,1.74,7.71,2.18Z" style="fill:#d6d6d6;"/><path d="M9.02,9c-.552,0-1.005-.448-1.005-1s.442-1,.995-1h.01c.552,0,1,.448,1,1s-.448,1-1,1Z" style="fill:#ccc;"/><path d="M62,50l-13.61-2.15c2.23-.77,4.6-1.82,7.05-3.22l.56,.37,6,5Z" style="fill:#e0e0e0;"/><path d="M53.29,38.71l-.29,.29c-7.39,4.55-16.27,5.85-24.58,3.69-.93-.24-1.86-.53-2.78-.86l-.74-.27-2.51-.9c-4.09-1.47-6.22-5.97-4.77-10.07,.5-1.41,1.36-2.61,2.48-3.52,1.12-.9,2.48-1.5,3.96-1.69l2.94-.38h.36l15.76,8.49,1.77,.96,4.76,2.56c1.18,.63,2.4,1.2,3.64,1.7Z" style="fill:#efefef;"/><path d="M44.89,34.45c-.03,.06-.07,.12-.11,.17-2.72,3.4-6.55,5.81-10.79,6.79l-5.57,1.28c-.93-.24-1.86-.53-2.78-.86l-.74-.27,1.83-.52,6.81-1.58c3.75-.86,7.16-2.99,9.58-5.97l1.77,.96Z" style="fill:#ddd;"/></g><g id="d"><path d="M9.02,7h-.01c-.552,0-.995,.448-.995,1s.453,1,1.005,1,1-.448,1-1-.448-1-1-1Z"/><path d="M57.236,44.727c1.495-.921,2.957-1.939,4.381-3.054,.312-.244,.451-.65,.353-1.034-.098-.385-.414-.675-.805-.739-3.872-.644-7.587-1.913-11.041-3.774l-25.13-13.533c-1.733-.933-3.111-2.098-4.096-3.462-1.096-1.52-1.829-3.307-2.119-5.166l-.778-5.062c-.023-2.083-.965-4.026-2.59-5.343-1.654-1.338-3.82-1.842-5.945-1.395-2.597,.553-4.724,2.658-5.292,5.24-.257,1.168-.201,2.341,.102,3.435l-2.138,3.655c-.181,.31-.183,.691-.004,1.002,.178,.312,.509,.503,.867,.503h3.821l1.179,9.989v2.294c0,10.405,5.815,18.343,15.183,21.298l2.669,4.448c.359,.599,1.017,.971,1.715,.971h.434v2.219l-1.904,.476c-1.135,.284-2.085,1.047-2.607,2.092l-.383,.766c-.247,.494-.047,1.095,.447,1.342,.495,.245,1.094,.047,1.342-.447l.383-.766c.262-.522,.737-.904,1.304-1.047l.006-.002c-.03,.054-.071,.099-.099,.154l-.383,.766c-.247,.494-.047,1.095,.447,1.342,.494,.245,1.094,.047,1.342-.447l.383-.766c.262-.522,.737-.904,1.304-1.047l.92-.229,.917,.229c.567,.143,1.043,.524,1.305,1.047l.383,.766c.176,.351,.528,.553,.896,.553,.15,0,.303-.034,.446-.105,.494-.247,.694-.848,.447-1.342l-.383-.766c-.028-.055-.069-.1-.099-.154h.005c.567,.144,1.043,.526,1.305,1.048l.383,.766c.176,.351,.528,.553,.896,.553,.15,0,.303-.034,.446-.105,.494-.247,.694-.848,.447-1.342l-.383-.766c-.522-1.045-1.473-1.808-2.608-2.092l-1.903-.477v-2.219h.346c.795,0,1.514-.471,1.832-1.199l1.231-2.816c4.1-.07,8.154-.795,12.078-2.129,.108,.065,.229,.112,.361,.133l13,2c.052,.008,.103,.012,.152,.012,.389,0,.748-.227,.911-.589,.186-.409,.074-.892-.271-1.18l-5.405-4.504Zm-6.042-5.839c-6.302,3.478-13.512,4.611-20.495,3.284l3.286-.759c3.979-.919,7.586-3.109,10.264-6.179l4.924,2.652c.663,.357,1.339,.686,2.02,1.002Zm-24.099-12.892l15.35,8.266c-2.368,2.577-5.487,4.413-8.908,5.202l-6.761,1.561c-.06,.014-.107,.05-.162,.073-.212-.071-.426-.133-.637-.209l-3.244-1.168c-3.562-1.282-5.435-5.229-4.174-8.799,.872-2.473,3.03-4.218,5.632-4.553l2.904-.374ZM5.306,13.038c.247,.346,.538,.662,.85,.962h-1.413l.563-.962ZM25.925,50.265c.506,.101,1.01,.205,1.533,.279l1.036,2.456h-.927l-1.641-2.735Zm5.075,6.954l-.499,.125-.501-.126v-2.219c.1,0,.19-.03,.281-.057,.126,.025,.251,.057,.383,.057h.336v2.219Zm4.753-8.229c-.397,0-.757,.235-.916,.6l-1.491,3.41h-2.682l-1.586-3.762c-.14-.33-.446-.562-.802-.604-11.103-1.339-18.276-9.327-18.276-20.351v-2.353c0-.039-.002-.078-.007-.117l-1.42-12.033c-.033-.285-.188-.542-.424-.705-1.7-1.178-2.476-3.186-2.023-5.24,.402-1.829,1.912-3.321,3.755-3.713,.369-.079,.739-.117,1.106-.117,1.153,0,2.267,.383,3.164,1.109,1.175,.951,1.849,2.36,1.849,3.867,0,.051,.004,.102,.012,.152l.79,5.137c.339,2.171,1.194,4.256,2.475,6.029,1.162,1.611,2.767,2.976,4.768,4.054l.027,.015-.137,.018c-3.354,.434-6.137,2.683-7.263,5.871-1.625,4.603,.79,9.692,5.383,11.346l3.244,1.168c3.626,1.306,7.381,1.95,11.114,1.95,5.953,0,11.853-1.64,17.087-4.855,1.659,.639,3.359,1.167,5.097,1.565-6.989,4.952-14.844,7.558-22.844,7.56Zm16.299-1.532c1.128-.502,2.242-1.055,3.341-1.662l3.203,2.669-6.544-1.007Z"/></g></svg>